<?xml version="1.0" standalone="no"?>
<!DOCTYPE svg PUBLIC "-//W3C//DTD SVG 20010904//EN"
 "http://www.w3.org/TR/2001/REC-SVG-20010904/DTD/svg10.dtd">
<svg version="1.0" xmlns="http://www.w3.org/2000/svg"
 width="1920.000000pt" height="1822.000000pt" viewBox="0 0 1920.000000 1822.000000"
 preserveAspectRatio="xMidYMid meet">

<g transform="translate(0.000000,1822.000000) scale(0.100000,-0.100000)"
fill="#000000" stroke="none">
<path d="M3005 16649 c-483 -37 -853 -187 -1120 -455 -241 -242 -377 -536
-442 -954 -22 -142 -25 -586 -5 -750 95 -772 361 -1585 836 -2551 58 -119 106
-220 106 -224 0 -20 412 -758 506 -907 13 -21 24 -41 24 -45 0 -5 -16 -33 -36
-62 -87 -129 -127 -258 -128 -411 -1 -295 172 -554 448 -669 114 -47 237 -65
349 -51 51 7 101 16 112 20 17 6 37 -17 150 -173 149 -208 465 -629 570 -762
197 -250 278 -350 368 -460 369 -449 553 -663 956 -1109 448 -496 1180 -1241
1632 -1660 35 -33 93 -87 129 -121 90 -85 189 -175 300 -275 52 -47 114 -103
139 -126 l43 -40 -88 -52 c-226 -133 -381 -312 -479 -553 -18 -46 -36 -95 -39
-109 -3 -14 -12 -61 -21 -105 -32 -152 -19 -362 31 -530 17 -54 17 -56 63
-157 171 -380 623 -649 1050 -625 176 10 394 76 524 158 29 19 54 36 57 39 3
3 21 17 40 30 59 41 131 110 189 180 11 14 26 31 31 38 23 27 107 168 115 192
4 14 11 30 15 35 4 6 20 46 35 90 16 44 29 81 31 83 1 2 74 -50 162 -115 511
-378 757 -549 1307 -908 295 -193 733 -453 955 -568 63 -32 120 -62 125 -66
19 -15 221 -119 462 -240 1159 -579 2177 -880 2974 -881 961 -1 1572 440 1743
1257 39 189 50 303 50 543 -1 679 -203 1464 -626 2435 -106 244 -390 815 -405
815 -7 0 -13 -4 -13 -9 0 -17 -283 -294 -367 -360 -356 -278 -782 -453 -1278
-525 -377 -55 -905 -45 -1325 24 -1102 181 -2234 661 -3405 1443 -216 144
-547 386 -745 544 -30 24 -62 50 -70 56 -47 38 -240 196 -265 218 -385 335
-475 418 -786 728 -407 408 -740 785 -1059 1200 -36 46 -81 105 -100 130 -136
176 -375 526 -522 762 -689 1109 -1068 2111 -1190 3144 -20 171 -17 718 5 875
77 549 248 968 541 1330 100 124 296 309 417 394 13 8 21 17 18 19 -13 10
-461 212 -609 274 -701 296 -1354 481 -1908 538 -187 19 -432 25 -577 14z"/>
<path d="M9630 15212 c-120 -37 -190 -98 -244 -212 -28 -58 -31 -75 -31 -155
0 -77 4 -98 28 -149 73 -158 188 -229 361 -227 78 2 99 6 154 32 258 124 295
474 68 648 -93 71 -229 97 -336 63z"/>
<path d="M13600 13773 c-126 -10 -315 -64 -433 -125 -72 -36 -190 -119 -245
-172 -321 -306 -434 -747 -300 -1166 115 -359 435 -654 801 -735 101 -23 335
-31 428 -14 41 7 77 12 81 11 4 -1 42 10 85 24 382 126 663 434 751 824 21 96
23 364 3 465 -65 325 -290 617 -591 770 -162 82 -408 132 -580 118z"/>
<path d="M6344 13591 c-22 -10 -54 -36 -72 -58 -118 -150 24 -362 211 -312 42
11 101 59 121 98 85 166 -90 349 -260 272z"/>
<path d="M9285 11363 c-79 -11 -203 -59 -253 -96 -45 -34 -123 -120 -147 -162
-58 -97 -73 -160 -71 -280 2 -61 8 -130 15 -155 52 -191 239 -352 441 -378 77
-10 184 -2 249 19 116 37 235 135 296 244 40 71 75 196 75 266 0 54 -23 171
-42 215 -60 139 -191 258 -333 303 -63 19 -179 32 -230 24z"/>
<path d="M14734 9391 c-57 -22 -88 -49 -113 -99 -40 -79 -22 -172 47 -232 98
-87 247 -58 305 60 32 64 24 154 -20 208 -56 69 -143 94 -219 63z"/>
<path d="M11905 8375 c-176 -45 -330 -196 -381 -375 -52 -183 0 -386 136 -520
86 -86 96 -93 172 -123 220 -88 449 -39 608 129 95 102 146 231 144 369 -2
227 -137 419 -351 502 -86 32 -236 41 -328 18z"/>
<path d="M3864 7680 c-84 -19 -188 -97 -236 -175 -26 -42 -58 -152 -58 -199 0
-45 30 -147 56 -192 33 -55 114 -131 167 -154 194 -86 414 -5 509 188 30 61
33 74 33 162 0 86 -3 101 -33 162 -37 77 -100 139 -186 182 -46 24 -71 29
-139 31 -45 1 -96 -1 -113 -5z"/>
<path d="M14358 5738 c-130 -27 -199 -169 -140 -285 36 -69 131 -120 204 -108
48 8 108 48 138 92 35 52 39 144 8 197 -47 79 -131 121 -210 104z"/>
<path d="M5399 4550 c-119 -36 -160 -188 -76 -278 33 -36 71 -52 122 -52 53 0
89 16 126 57 32 34 43 65 40 116 -4 77 -41 127 -111 152 -46 16 -62 17 -101 5z"/>
</g>
</svg>
